# Blender v2.70 (sub 0) OBJ File: 'chess.blend'
# www.blender.org
o King_Sphere.008
v -0.053079 0.119702 -0.091936
v 0.053079 0.119702 -0.091936
v -0.106158 0.119702 -0.000000
v -0.053079 0.119702 0.091936
v 0.053079 0.119702 0.091936
v 0.106158 0.119702 0.000000
v -0.072125 0.050160 -0.124924
v 0.072125 0.050160 -0.124924
v -0.144250 0.050160 -0.000000
v -0.072125 0.050160 0.124924
v 0.072125 0.050160 0.124924
v 0.144250 0.050160 0.000000
v 0.072125 -0.000711 -0.124924
v -0.072125 -0.000711 -0.124924
v -0.144250 -0.000711 -0.000000
v -0.072125 -0.000711 0.124924
v 0.072125 -0.000711 0.124924
v 0.144250 -0.000711 0.000000
v -0.025543 0.379856 -0.044242
v 0.025543 0.379856 -0.044242
v -0.051086 0.379856 -0.000000
v -0.025543 0.379856 0.044242
v 0.025543 0.379856 0.044242
v 0.051086 0.379856 0.000000
v -0.060585 0.392698 -0.104936
v 0.060585 0.392698 -0.104936
v -0.121170 0.392698 -0.000000
v -0.060585 0.392698 0.104936
v 0.060585 0.392698 0.104936
v 0.121170 0.392698 0.000000
v -0.032716 0.412698 -0.056666
v 0.032716 0.412698 -0.056666
v -0.065432 0.412698 -0.000000
v -0.032716 0.412698 0.056666
v 0.032716 0.412698 0.056666
v 0.065432 0.412698 0.000000
v -0.047185 0.471471 -0.081726
v 0.047185 0.471471 -0.081726
v -0.094369 0.471471 -0.000000
v -0.047185 0.471471 0.081726
v 0.047184 0.471471 0.081726
v 0.094369 0.471471 0.000000
v -0.053989 0.518279 -0.093511
v 0.053989 0.518279 -0.093511
v -0.107977 0.518279 -0.000000
v -0.053989 0.518279 0.093511
v 0.053989 0.518279 0.093511
v 0.107977 0.518279 0.000000
v 0.031411 0.530253 -0.054405
v -0.031411 0.530253 -0.054405
v -0.062822 0.530253 -0.000000
v -0.031411 0.530253 0.054405
v 0.031411 0.530253 0.054405
v 0.062822 0.530253 0.000000
v 0.017585 0.556379 -0.018275
v -0.017585 0.556379 -0.018275
v -0.035170 0.556379 -0.000000
v -0.017585 0.556379 0.018275
v 0.017585 0.556379 0.018275
v 0.035170 0.556379 0.000000
v 0.017585 0.588447 -0.018275
v -0.017585 0.588447 -0.018275
v -0.017585 0.588447 0.018275
v 0.017585 0.588447 0.018275
v 0.017585 0.618447 -0.018275
v -0.017585 0.618447 -0.018275
v -0.017585 0.618447 0.018275
v 0.017585 0.618447 0.018275
v 0.017585 0.658564 -0.018275
v -0.017585 0.658564 -0.018275
v -0.017585 0.658564 0.018275
v 0.017585 0.658564 0.018275
v 0.017585 0.618447 0.054221
v -0.017585 0.618447 0.054221
v 0.017585 0.588447 0.054221
v -0.017585 0.588447 0.054221
v -0.017585 0.618447 -0.054221
v 0.017585 0.618447 -0.054221
v -0.017585 0.588447 -0.054221
v 0.017585 0.588447 -0.054221
v 0.053079 0.119702 -0.091936
v 0.072125 0.050160 -0.124924
v 0.072125 0.050160 -0.124924
v 0.072125 0.050160 -0.124924
v -0.072125 0.050160 -0.124924
v -0.072125 0.050160 -0.124924
v -0.072125 0.050160 -0.124924
v -0.053079 0.119702 -0.091936
v -0.144250 0.050160 -0.000000
v -0.144250 0.050160 -0.000000
v -0.144250 0.050160 -0.000000
v -0.106158 0.119702 -0.000000
v -0.072125 0.050160 0.124924
v -0.072125 0.050160 0.124924
v -0.072125 0.050160 0.124924
v -0.053079 0.119702 0.091936
v 0.072125 0.050160 0.124924
v 0.072125 0.050160 0.124924
v 0.072125 0.050160 0.124924
v 0.053079 0.119702 0.091936
v 0.144250 0.050160 0.000000
v 0.144250 0.050160 0.000000
v 0.144250 0.050160 0.000000
v 0.106158 0.119702 0.000000
v 0.072125 -0.000711 -0.124924
v 0.072125 -0.000711 -0.124924
v -0.072125 -0.000711 -0.124924
v -0.072125 -0.000711 -0.124924
v -0.144250 -0.000711 -0.000000
v -0.144250 -0.000711 -0.000000
v -0.144250 -0.000711 -0.000000
v -0.072125 -0.000711 0.124924
v -0.072125 -0.000711 0.124924
v 0.072125 -0.000711 0.124924
v 0.072125 -0.000711 0.124924
v 0.144250 -0.000711 0.000000
v 0.144250 -0.000711 0.000000
v 0.144250 -0.000711 0.000000
v -0.025543 0.379856 -0.044242
v -0.025543 0.379856 -0.044242
v -0.025543 0.379856 -0.044242
v 0.025543 0.379856 -0.044242
v 0.025543 0.379856 -0.044242
v 0.025543 0.379856 -0.044242
v -0.051086 0.379856 -0.000000
v -0.051086 0.379856 -0.000000
v -0.051086 0.379856 -0.000000
v -0.025543 0.379856 0.044242
v -0.025543 0.379856 0.044242
v -0.025543 0.379856 0.044242
v 0.025543 0.379856 0.044242
v 0.025543 0.379856 0.044242
v 0.025543 0.379856 0.044242
v 0.051086 0.379856 0.000000
v 0.051086 0.379856 0.000000
v 0.051086 0.379856 0.000000
v -0.060585 0.392698 -0.104936
v -0.060585 0.392698 -0.104936
v -0.060585 0.392698 -0.104936
v 0.060585 0.392698 -0.104936
v 0.060585 0.392698 -0.104936
v 0.060585 0.392698 -0.104936
v -0.121170 0.392698 -0.000000
v -0.121170 0.392698 -0.000000
v -0.121170 0.392698 -0.000000
v -0.060585 0.392698 0.104936
v -0.060585 0.392698 0.104936
v -0.060585 0.392698 0.104936
v 0.060585 0.392698 0.104936
v 0.060585 0.392698 0.104936
v 0.060585 0.392698 0.104936
v 0.121170 0.392698 0.000000
v 0.121170 0.392698 0.000000
v 0.121170 0.392698 0.000000
v -0.032716 0.412698 -0.056666
v -0.032716 0.412698 -0.056666
v -0.032716 0.412698 -0.056666
v 0.032716 0.412698 -0.056666
v 0.032716 0.412698 -0.056666
v 0.032716 0.412698 -0.056666
v -0.065432 0.412698 -0.000000
v -0.065432 0.412698 -0.000000
v -0.065432 0.412698 -0.000000
v -0.032716 0.412698 0.056666
v -0.032716 0.412698 0.056666
v -0.032716 0.412698 0.056666
v 0.032716 0.412698 0.056666
v 0.032716 0.412698 0.056666
v 0.032716 0.412698 0.056666
v 0.065432 0.412698 0.000000
v 0.065432 0.412698 0.000000
v 0.065432 0.412698 0.000000
v -0.047185 0.471471 -0.081726
v 0.047185 0.471471 -0.081726
v -0.094369 0.471471 -0.000000
v -0.047185 0.471471 0.081726
v 0.047184 0.471471 0.081726
v 0.094369 0.471471 0.000000
v -0.053989 0.518279 -0.093511
v -0.053989 0.518279 -0.093511
v -0.053989 0.518279 -0.093511
v 0.053989 0.518279 -0.093511
v 0.053989 0.518279 -0.093511
v 0.053989 0.518279 -0.093511
v -0.107977 0.518279 -0.000000
v -0.107977 0.518279 -0.000000
v -0.107977 0.518279 -0.000000
v -0.053989 0.518279 0.093511
v -0.053989 0.518279 0.093511
v -0.053989 0.518279 0.093511
v 0.053989 0.518279 0.093511
v 0.053989 0.518279 0.093511
v 0.053989 0.518279 0.093511
v 0.107977 0.518279 0.000000
v 0.107977 0.518279 0.000000
v 0.107977 0.518279 0.000000
v -0.031411 0.530253 -0.054405
v 0.031411 0.530253 -0.054405
v -0.062822 0.530253 -0.000000
v -0.031411 0.530253 0.054405
v 0.031411 0.530253 0.054405
v 0.062822 0.530253 0.000000
v -0.017585 0.556379 -0.018275
v -0.017585 0.556379 -0.018275
v -0.017585 0.556379 -0.018275
v -0.017585 0.556379 -0.018275
v 0.017585 0.556379 -0.018275
v 0.017585 0.556379 -0.018275
v 0.017585 0.556379 -0.018275
v 0.017585 0.556379 -0.018275
v -0.035170 0.556379 -0.000000
v -0.035170 0.556379 -0.000000
v -0.017585 0.556379 0.018275
v -0.017585 0.556379 0.018275
v -0.017585 0.556379 0.018275
v -0.017585 0.556379 0.018275
v 0.017585 0.556379 0.018275
v 0.017585 0.556379 0.018275
v 0.017585 0.556379 0.018275
v 0.017585 0.556379 0.018275
v 0.035170 0.556379 0.000000
v 0.035170 0.556379 0.000000
v -0.017585 0.588447 -0.018275
v -0.017585 0.588447 -0.018275
v -0.017585 0.588447 -0.018275
v -0.017585 0.588447 -0.018275
v 0.017585 0.588447 -0.018275
v 0.017585 0.588447 -0.018275
v 0.017585 0.588447 -0.018275
v 0.017585 0.588447 -0.018275
v 0.017585 0.588447 0.018275
v 0.017585 0.588447 0.018275
v 0.017585 0.588447 0.018275
v 0.017585 0.588447 0.018275
v -0.017585 0.588447 0.018275
v -0.017585 0.588447 0.018275
v -0.017585 0.588447 0.018275
v -0.017585 0.588447 0.018275
v -0.017585 0.618447 -0.018275
v -0.017585 0.618447 -0.018275
v -0.017585 0.618447 -0.018275
v -0.017585 0.618447 -0.018275
v 0.017585 0.618447 -0.018275
v 0.017585 0.618447 -0.018275
v 0.017585 0.618447 -0.018275
v 0.017585 0.618447 -0.018275
v 0.017585 0.618447 0.018275
v 0.017585 0.618447 0.018275
v 0.017585 0.618447 0.018275
v 0.017585 0.618447 0.018275
v -0.017585 0.618447 0.018275
v -0.017585 0.618447 0.018275
v -0.017585 0.618447 0.018275
v -0.017585 0.618447 0.018275
v -0.017585 0.658564 -0.018275
v -0.017585 0.658564 -0.018275
v 0.017585 0.658564 -0.018275
v 0.017585 0.658564 -0.018275
v 0.017585 0.658564 0.018275
v 0.017585 0.658564 0.018275
v -0.017585 0.658564 0.018275
v -0.017585 0.658564 0.018275
v -0.017585 0.588447 0.054221
v -0.017585 0.588447 0.054221
v -0.017585 0.618447 0.054221
v -0.017585 0.618447 0.054221
v 0.017585 0.618447 0.054221
v 0.017585 0.618447 0.054221
v 0.017585 0.588447 0.054221
v 0.017585 0.588447 0.054221
v 0.017585 0.588447 -0.054221
v 0.017585 0.588447 -0.054221
v 0.017585 0.618447 -0.054221
v 0.017585 0.618447 -0.054221
v -0.017585 0.618447 -0.054221
v -0.017585 0.618447 -0.054221
v -0.017585 0.588447 -0.054221
v -0.017585 0.588447 -0.054221
vt 0.981314 0.146238
vt 0.820906 0.146238
vt 0.820906 0.069268
vt 0.018869 0.146238
vt 0.018869 0.069269
vt 0.179276 0.069269
vt 0.339684 0.146238
vt 0.179276 0.146238
vt 0.500091 0.146238
vt 0.339684 0.069268
vt 0.500091 0.069268
vt 0.660499 0.069268
vt 0.660499 0.146238
vt 0.820906 0.012964
vt 0.981314 0.012964
vt 0.018869 0.012964
vt 0.179276 0.012964
vt 0.339684 0.012964
vt 0.500091 0.012964
vt 0.660499 0.012964
vt 0.618379 0.823137
vt 0.966620 0.823137
vt 0.879560 0.973930
vt 0.705440 0.672344
vt 0.981313 0.414351
vt 0.820906 0.414351
vt 0.179276 0.414351
vt 0.018869 0.414351
vt 0.339684 0.414351
vt 0.500091 0.414351
vt 0.660499 0.414351
vt 0.981313 0.444072
vt 0.820906 0.444072
vt 0.179276 0.444072
vt 0.339684 0.444072
vt 0.500091 0.444072
vt 0.660499 0.444072
vt 0.981313 0.490359
vt 0.018869 0.444072
vt 0.179276 0.490359
vt 0.339684 0.490359
vt 0.500091 0.490359
vt 0.660499 0.490359
vt 0.820906 0.490359
vt 0.981313 0.535581
vt 0.179276 0.535581
vt 0.018869 0.535581
vt 0.339684 0.535581
vt 0.500091 0.535581
vt 0.660499 0.535581
vt 0.820906 0.535581
vt 0.981313 0.587389
vt 0.820906 0.587389
vt 0.179276 0.587389
vt 0.018869 0.587389
vt 0.339684 0.587389
vt 0.500091 0.587389
vt 0.660499 0.587389
vt 0.981313 0.600642
vt 0.820906 0.600642
vt 0.179276 0.600642
vt 0.018869 0.600642
vt 0.339684 0.600642
vt 0.500091 0.600642
vt 0.660499 0.600642
vt 0.981230 0.629557
vt 0.179276 0.629557
vt 0.339232 0.629557
vt 0.500271 0.629557
vt 0.660498 0.629557
vt 0.820726 0.629557
vt 0.229988 0.909555
vt 0.195761 0.942450
vt 0.161573 0.909513
vt 0.430396 0.909685
vt 0.498818 0.909730
vt 0.464586 0.942627
vt 0.297231 0.976886
vt 0.297268 0.916858
vt 0.363104 0.916899
vt 0.028419 0.976715
vt 0.028454 0.916691
vt 0.094286 0.916730
vt 0.161610 0.849488
vt 0.230025 0.849529
vt 0.430435 0.849655
vt 0.161643 0.793333
vt 0.230059 0.793374
vt 0.430471 0.793495
vt 0.498893 0.793539
vt 0.355463 0.652506
vt 0.430563 0.652555
vt 0.430520 0.718395
vt 0.574043 0.718489
vt 0.498942 0.718440
vt 0.498985 0.652600
vt 0.161688 0.718241
vt 0.230103 0.718282
vt 0.094326 0.849447
vt 0.094360 0.793293
vt 0.574086 0.652649
vt 0.641378 0.652693
vt 0.641335 0.718533
vt 0.566184 0.793583
vt 0.566147 0.849743
vt 0.028495 0.849408
vt 0.028528 0.793254
vt 0.363146 0.849612
vt 0.363181 0.793454
vt 0.355420 0.718346
vt 0.288128 0.718302
vt 0.288171 0.652462
vt 0.297345 0.793414
vt 0.297310 0.849571
vt 0.981314 0.069269
vt 0.705440 0.973930
vt 0.879560 0.672344
vt 0.018869 0.490359
vt 0.019321 0.629557
vt 0.363066 0.976928
vt 0.094250 0.976755
vt 0.498857 0.849699
vn 0.000000 0.320266 -0.947328
vn 0.000000 0.428589 -0.903500
vn -0.820410 0.320266 -0.473664
vn -0.782454 0.428589 -0.451750
vn -0.782454 0.428588 -0.451750
vn -0.820410 0.320266 0.473664
vn -0.782454 0.428589 0.451750
vn -0.000000 0.320266 0.947328
vn -0.000000 0.428589 0.903500
vn 0.820410 0.320266 0.473664
vn 0.782454 0.428589 0.451750
vn 0.820410 0.320266 -0.473664
vn 0.782454 0.428589 -0.451750
vn 0.000000 0.000000 -1.000000
vn -0.866025 0.000000 -0.500000
vn -0.866025 0.000000 0.500000
vn -0.000000 0.000000 1.000000
vn 0.866025 0.000000 0.500000
vn 0.866026 0.000000 -0.500000
vn 0.000000 -1.000000 0.000000
vn 0.000000 0.180323 -0.983607
vn -0.851829 0.180323 -0.491804
vn -0.851829 0.180323 0.491804
vn 0.000000 0.180323 0.983607
vn 0.851829 0.180323 0.491804
vn 0.851829 0.180323 -0.491804
vn 0.000000 -0.978339 -0.207008
vn 0.000000 -0.978339 -0.207007
vn 0.000000 -0.978339 -0.207009
vn -0.179274 -0.978339 -0.103504
vn -0.179274 -0.978339 -0.103503
vn -0.179274 -0.978339 0.103505
vn -0.179274 -0.978339 0.103504
vn -0.000000 -0.978339 0.207008
vn 0.179274 -0.978339 0.103504
vn 0.179274 -0.978339 -0.103504
vn 0.179274 -0.978339 -0.103505
vn 0.000000 0.923841 -0.382776
vn 0.000000 0.923841 -0.382775
vn -0.331493 0.923841 -0.191388
vn -0.331493 0.923841 -0.191387
vn -0.331493 0.923842 0.191387
vn -0.331493 0.923841 0.191388
vn -0.000000 0.923842 0.382775
vn 0.331493 0.923841 0.191388
vn 0.331493 0.923841 -0.191388
vn 0.000000 -0.392224 -0.919870
vn 0.000000 -0.310345 -0.950624
vn -0.796630 -0.392224 -0.459935
vn -0.823265 -0.310345 -0.475312
vn -0.823264 -0.310345 -0.475312
vn -0.796630 -0.392224 0.459935
vn -0.823265 -0.310345 0.475312
vn -0.823264 -0.310345 0.475312
vn -0.000000 -0.392224 0.919870
vn -0.000000 -0.310345 0.950624
vn 0.796630 -0.392224 0.459935
vn 0.823264 -0.310345 0.475312
vn 0.823264 -0.310345 0.475313
vn 0.796631 -0.392224 -0.459935
vn 0.823265 -0.310345 -0.475312
vn 0.000000 -0.244154 -0.969736
vn 0.000000 -0.244154 -0.969737
vn -0.839817 -0.244154 -0.484868
vn -0.839817 -0.244154 0.484868
vn -0.839816 -0.244154 0.484868
vn 0.000000 -0.244154 0.969736
vn 0.839816 -0.244154 0.484868
vn 0.839816 -0.244154 0.484869
vn 0.839816 -0.244154 -0.484868
vn 0.839817 -0.244154 -0.484868
vn 0.000000 0.956181 -0.292777
vn 0.000000 0.912405 -0.409289
vn -0.253554 0.956180 -0.146390
vn -0.407760 0.882218 -0.235421
vn -0.363400 0.902306 -0.231916
vn -0.253554 0.956180 0.146390
vn -0.253554 0.956180 0.146389
vn -0.363400 0.902306 0.231916
vn -0.000000 0.956181 0.292778
vn -0.000000 0.912405 0.409288
vn -0.000000 0.912405 0.409290
vn 0.253554 0.956180 0.146389
vn 0.407760 0.882218 0.235420
vn 0.363400 0.902306 0.231916
vn 0.253554 0.956180 -0.146389
vn 0.363400 0.902306 -0.231916
vn 0.407760 0.882218 -0.235420
vn 0.000000 0.810343 -0.585956
vn -0.563605 0.728768 -0.388904
vn -0.430919 0.801482 0.414651
vn -0.563605 0.728768 0.388904
vn -0.000000 0.810345 0.585953
vn -0.000000 0.810343 0.585955
vn 0.563605 0.728768 0.388904
vn 0.430919 0.801482 -0.414651
vn 0.563605 0.728768 -0.388904
vn 0.000000 1.000000 0.000000
vn -1.000000 0.000000 0.000000
vn 1.000000 0.000000 0.000000
vn 0.000000 1.000000 -0.000001
vn -0.782454 0.428588 0.451750
vn 0.000000 -0.978339 -0.207010
vn -0.179274 -0.978339 -0.103505
vn -0.331493 0.923842 0.191386
vn 0.331493 0.923841 0.191387
vn -0.253554 0.956180 -0.146389
vn -0.407760 0.882218 0.235422
vn 0.000000 0.956180 0.292779
vn 0.000000 0.810344 -0.585955
vn -0.430919 0.801482 -0.414651
vn 0.430918 0.801482 0.414651
vn 0.000000 1.000000 -0.000003
s 1
f 1/1/1 2/2/1 8/3/2
f 88/4/3 85/5/4 9/6/5
f 4/7/6 92/8/6 89/6/7
f 5/9/8 96/7/8 93/10/9
f 100/9/10 97/11/11 12/12/11
f 81/2/12 104/13/12 101/12/13
f 83/3/14 13/14/14 14/15/14
f 87/5/15 107/16/15 15/17/15
f 91/6/16 109/17/16 16/18/16
f 95/10/17 112/18/17 17/19/17
f 99/11/18 114/19/18 18/20/18
f 103/12/19 116/20/19 105/14/19
f 110/21/20 117/22/20 115/23/20
f 118/22/20 111/21/20 108/24/20
f 1/1/1 19/25/21 20/26/21
f 3/8/3 21/27/22 119/28/22
f 4/7/6 22/29/23 125/27/23
f 5/9/8 23/30/24 128/29/24
f 100/9/10 6/13/10 24/31/25
f 81/2/12 122/26/26 134/31/26
f 120/25/27 25/32/28 26/33/29
f 121/28/30 126/27/31 27/34/30
f 129/29/32 28/35/32 143/34/33
f 130/29/34 132/30/34 29/36/34
f 135/31/35 30/37/35 149/36/35
f 136/31/36 124/26/37 140/33/36
f 141/33/38 138/32/39 31/38/39
f 139/39/40 144/34/41 33/40/40
f 145/34/42 147/35/43 34/41/43
f 150/36/44 35/42/44 164/41/44
f 153/37/45 36/43/45 167/42/45
f 154/37/46 142/33/46 158/44/46
f 159/44/47 156/38/47 37/45/48
f 162/40/49 39/46/50 173/47/51
f 165/41/52 40/48/53 175/46/54
f 168/42/55 41/49/56 176/48/56
f 171/43/57 42/50/58 177/49/59
f 172/43/60 160/44/60 174/51/61
f 37/45/48 43/52/62 44/53/63
f 39/46/50 45/54/64 179/55/64
f 40/48/53 46/56/65 185/54/66
f 41/49/56 47/57/67 188/56/67
f 42/50/58 48/58/68 191/57/69
f 174/51/61 182/53/70 194/58/71
f 180/52/72 50/59/73 49/60/73
f 186/54/74 51/61/75 197/62/76
f 187/54/77 189/56/78 52/63/79
f 192/57/80 53/64/81 200/63/82
f 195/58/83 54/65/84 201/64/85
f 184/53/86 198/60/87 202/65/88
f 49/60/73 50/59/73 56/66/89
f 197/62/76 51/61/75 57/67/90
f 52/63/79 58/68/91 211/67/92
f 53/64/81 59/69/93 213/68/94
f 201/64/85 54/65/84 60/70/95
f 198/60/87 207/71/96 221/70/97
f 204/72/98 212/73/98 214/74/98
f 208/75/98 218/76/98 222/77/98
f 205/78/14 62/79/14 61/80/14
f 219/81/17 64/82/17 63/83/17
f 216/74/99 235/84/99 223/85/99
f 220/76/100 210/75/100 227/86/100
f 236/84/99 251/87/99 66/88/99
f 228/86/100 243/89/100 68/90/100
f 239/91/14 70/92/14 69/93/14
f 247/94/17 72/95/17 71/96/17
f 254/87/99 261/97/99 255/98/99
f 246/89/100 257/93/100 259/95/100
f 237/84/99 76/99/99 74/100/99
f 253/101/98 265/102/98 73/103/98
f 249/90/100 267/104/100 75/105/100
f 234/82/20 269/106/20 263/99/20
f 270/106/17 268/107/17 266/100/17
f 229/86/100 80/108/100 78/109/100
f 245/110/98 273/111/98 77/112/98
f 241/88/99 275/113/99 79/114/99
f 226/79/20 277/114/20 271/108/20
f 278/114/14 276/113/14 274/109/14
f 256/92/101 262/96/98 260/95/101
f 7/115/2 1/1/1 8/3/2
f 3/8/3 88/4/3 9/6/5
f 10/10/102 4/7/6 89/6/7
f 11/11/9 5/9/8 93/10/9
f 6/13/10 100/9/10 12/12/11
f 82/3/13 81/2/12 101/12/13
f 86/115/14 83/3/14 14/15/14
f 90/6/15 87/5/15 15/17/15
f 94/10/16 91/6/16 16/18/16
f 98/11/17 95/10/17 17/19/17
f 102/12/18 99/11/18 18/20/18
f 84/3/19 103/12/19 105/14/19
f 113/116/20 110/21/20 115/23/20
f 106/117/20 118/22/20 108/24/20
f 2/2/1 1/1/1 20/26/21
f 88/4/3 3/8/3 119/28/22
f 92/8/6 4/7/6 125/27/23
f 96/7/8 5/9/8 128/29/24
f 131/30/25 100/9/10 24/31/25
f 104/13/12 81/2/12 134/31/26
f 123/26/103 120/25/27 26/33/29
f 137/39/104 121/28/30 27/34/30
f 127/27/33 129/29/32 143/34/33
f 146/35/34 130/29/34 29/36/34
f 133/30/35 135/31/35 149/36/35
f 152/37/36 136/31/36 140/33/36
f 32/44/38 141/33/38 31/38/39
f 155/118/40 139/39/40 33/40/40
f 161/40/105 145/34/42 34/41/43
f 148/35/44 150/36/44 164/41/44
f 151/36/106 153/37/45 167/42/45
f 170/43/46 154/37/46 158/44/46
f 38/51/48 159/44/47 37/45/48
f 157/118/49 162/40/49 173/47/51
f 163/40/52 165/41/52 175/46/54
f 166/41/55 168/42/55 176/48/56
f 169/42/57 171/43/57 177/49/59
f 178/50/61 172/43/60 174/51/61
f 38/51/48 37/45/48 44/53/63
f 173/47/51 39/46/50 179/55/64
f 175/46/54 40/48/53 185/54/66
f 176/48/56 41/49/56 188/56/67
f 177/49/59 42/50/58 191/57/69
f 178/50/61 174/51/61 194/58/71
f 183/53/72 180/52/72 49/60/73
f 181/55/107 186/54/74 197/62/76
f 199/61/108 187/54/77 52/63/79
f 190/56/109 192/57/80 200/63/82
f 193/57/83 195/58/83 201/64/85
f 196/58/86 184/53/86 202/65/88
f 55/71/110 49/60/73 56/66/89
f 203/119/111 197/62/76 57/67/90
f 199/61/108 52/63/79 211/67/92
f 200/63/82 53/64/81 213/68/94
f 217/69/112 201/64/85 60/70/95
f 202/65/88 198/60/87 221/70/97
f 209/120/14 205/78/14 61/80/14
f 215/121/17 219/81/17 63/83/17
f 206/72/99 216/74/99 223/85/99
f 231/122/100 220/76/100 227/86/100
f 224/85/99 236/84/99 66/88/99
f 232/122/100 228/86/100 68/90/100
f 65/110/14 239/91/14 69/93/14
f 67/101/17 247/94/17 71/96/17
f 242/88/99 254/87/99 255/98/99
f 250/90/100 246/89/100 259/95/100
f 252/87/99 237/84/99 74/100/99
f 248/94/98 253/101/98 73/103/98
f 233/122/100 249/90/100 75/105/100
f 238/83/20 234/82/20 263/99/20
f 264/99/17 270/106/17 266/100/17
f 244/89/100 229/86/100 78/109/100
f 240/91/98 245/110/98 77/112/98
f 225/85/99 241/88/99 79/114/99
f 230/80/20 226/79/20 271/108/20
f 272/108/14 278/114/14 274/109/14
f 258/93/113 256/92/101 260/95/101
